ffmpeg started on 2016-12-05 at 23:56:45
Report written to "Output/x264/results/ffmpeg/sintelfast500k.log"
Command line:
Tools/ffmpeg/ffmpeg -benchmark -y -i Input/y4m/sintel.y4m -c:v libx264 -preset fast -b:v 500k -an Output/x264/encoded/sintelfast500k.mkv
ffmpeg version N-82227-gdb23fde Copyright (c) 2000-2016 the FFmpeg developers
  built with gcc 5.4.0 (Ubuntu 5.4.0-6ubuntu1~16.04.2) 20160609
  configuration: --prefix=/home/jaroslav/ffmpeg_build --pkg-config-flags=--static --extra-cflags=-I/home/jaroslav/ffmpeg_build/include --extra-ldflags=-L/home/jaroslav/ffmpeg_build/lib --bindir=/home/jaroslav/bin --enable-gpl --enable-libass --enable-libfdk-aac --enable-libfreetype --enable-libmp3lame --enable-libopus --enable-libtheora --enable-libvorbis --enable-libvpx --enable-libx264 --enable-libx265 --enable-nvenc --enable-libmfx --enable-libxvid --enable-libgsm --enable-libopencore-amrnb --enable-version3 --enable-nonfree
  libavutil      55. 35.100 / 55. 35.100
  libavcodec     57. 66.101 / 57. 66.101
  libavformat    57. 57.100 / 57. 57.100
  libavdevice    57.  2.100 / 57.  2.100
  libavfilter     6. 66.100 /  6. 66.100
  libswscale      4.  3.100 /  4.  3.100
  libswresample   2.  4.100 /  2.  4.100
  libpostproc    54.  2.100 / 54.  2.100
Input #0, yuv4mpegpipe, from 'Input/y4m/sintel.y4m':
  Duration: 00:00:20.83, start: 0.000000, bitrate: 2057307 kb/s
    Stream #0:0: Video: rawvideo (I420 / 0x30323449), yuv420p(progressive), 4096x1744, SAR 1:1 DAR 256:109, 24 fps, 24 tbr, 24 tbn, 24 tbc
[libx264 @ 0x3c70120] using SAR=1/1
[libx264 @ 0x3c70120] using cpu capabilities: MMX2 SSE2Fast SSSE3 SSE4.2 AVX FMA3 AVX2 LZCNT BMI2
[libx264 @ 0x3c70120] profile High, level 5.1
[libx264 @ 0x3c70120] 264 - core 148 - H.264/MPEG-4 AVC codec - Copyleft 2003-2016 - http://www.videolan.org/x264.html - options: cabac=1 ref=2 deblock=1:0:0 analyse=0x3:0x113 me=hex subme=6 psy=1 psy_rd=1.00:0.00 mixed_ref=1 me_range=16 chroma_me=1 trellis=1 8x8dct=1 cqm=0 deadzone=21,11 fast_pskip=1 chroma_qp_offset=-2 threads=6 lookahead_threads=1 sliced_threads=0 nr=0 decimate=1 interlaced=0 bluray_compat=0 constrained_intra=0 bframes=3 b_pyramid=2 b_adapt=1 b_bias=0 direct=1 weightb=1 open_gop=0 weightp=1 keyint=250 keyint_min=24 scenecut=40 intra_refresh=0 rc_lookahead=30 rc=abr mbtree=1 bitrate=500 ratetol=1.0 qcomp=0.60 qpmin=0 qpmax=69 qpstep=4 ip_ratio=1.40 aq=1:1.00
Output #0, matroska, to 'Output/x264/encoded/sintelfast500k.mkv':
  Metadata:
    encoder         : Lavf57.57.100
    Stream #0:0: Video: h264 (libx264) (H264 / 0x34363248), yuv420p, 4096x1744 [SAR 1:1 DAR 256:109], q=-1--1, 500 kb/s, 24 fps, 1k tbn, 24 tbc
    Metadata:
      encoder         : Lavc57.66.101 libx264
    Side data:
      cpb: bitrate max/min/avg: 0/0/500000 buffer size: 0 vbv_delay: -1
Stream mapping:
  Stream #0:0 -> #0:0 (rawvideo (native) -> h264 (libx264))
Press [q] to stop, [?] for help
frame=    8 fps=0.0 q=0.0 size=       0kB time=00:00:00.00 bitrate=N/A speed=   0x    frame=   17 fps= 14 q=0.0 size=       0kB time=00:00:00.00 bitrate=N/A speed=   0x    frame=   23 fps= 14 q=0.0 size=       0kB time=00:00:00.00 bitrate=N/A speed=   0x    frame=   32 fps= 14 q=0.0 size=       0kB time=00:00:00.00 bitrate=N/A speed=   0x    frame=   37 fps=8.9 q=0.0 size=       0kB time=00:00:00.00 bitrate=N/A speed=   0x    frame=   45 fps=9.4 q=54.0 size=       1kB time=00:00:00.08 bitrate=  69.9kbits/s speed=0.0176x    frame=   46 fps=5.1 q=57.0 size=       1kB time=00:00:00.12 bitrate=  46.6kbits/s speed=0.0139x    frame=   53 fps=5.5 q=68.0 size=       1kB time=00:00:00.41 bitrate=  14.0kbits/s speed=0.0436x    frame=   62 fps=6.1 q=69.0 size=       1kB time=00:00:00.79 bitrate=   7.4kbits/s speed=0.0785x    frame=   70 fps=6.6 q=69.0 size=       1kB time=00:00:01.12 bitrate=   5.2kbits/s speed=0.106x    frame=   78 fps=7.0 q=69.0 size=       1kB time=00:00:01.45 bitrate=   4.0kbits/s speed=0.13x    frame=   86 fps=7.3 q=69.0 size=       1kB time=00:00:01.79 bitrate=   3.3kbits/s speed=0.152x    frame=   94 fps=7.6 q=69.0 size=       1kB time=00:00:02.12 bitrate=   2.8kbits/s speed=0.172x    frame=  102 fps=7.9 q=69.0 size=       1kB time=00:00:02.45 bitrate=   2.4kbits/s speed=0.19x    frame=  109 fps=8.1 q=69.0 size=       1kB time=00:00:02.75 bitrate=   2.1kbits/s speed=0.205x    frame=  116 fps=8.3 q=69.0 size=       1kB time=00:00:03.04 bitrate=   1.9kbits/s speed=0.217x    frame=  124 fps=8.5 q=69.0 size=       1kB time=00:00:03.37 bitrate=   1.7kbits/s speed=0.232x    frame=  131 fps=8.7 q=69.0 size=       1kB time=00:00:03.66 bitrate=   1.6kbits/s speed=0.243x    frame=  138 fps=8.8 q=69.0 size=     590kB time=00:00:03.95 bitrate=1220.8kbits/s speed=0.253x    frame=  146 fps=9.0 q=69.0 size=     590kB time=00:00:04.29 bitrate=1125.8kbits/s speed=0.266x    frame=  154 fps=9.2 q=69.0 size=     590kB time=00:00:04.62 bitrate=1044.7kbits/s speed=0.277x    frame=  161 fps=9.4 q=69.0 size=     590kB time=00:00:04.91 bitrate= 982.7kbits/s speed=0.286x    frame=  168 fps=9.5 q=69.0 size=     590kB time=00:00:05.20 bitrate= 927.8kbits/s speed=0.294x    frame=  176 fps=9.6 q=69.0 size=     590kB time=00:00:05.54 bitrate= 871.9kbits/s speed=0.303x    frame=  184 fps=9.8 q=69.0 size=     590kB time=00:00:05.87 bitrate= 822.5kbits/s speed=0.312x    frame=  192 fps=9.9 q=66.0 size=     590kB time=00:00:06.20 bitrate= 778.4kbits/s speed=0.321x    frame=  200 fps= 10 q=69.0 size=     942kB time=00:00:06.54 bitrate=1179.4kbits/s speed=0.328x    frame=  207 fps= 10 q=69.0 size=     942kB time=00:00:06.83 bitrate=1129.1kbits/s speed=0.334x    frame=  215 fps= 10 q=69.0 size=     942kB time=00:00:07.16 bitrate=1076.5kbits/s speed=0.341x    frame=  219 fps= 10 q=66.0 size=     942kB time=00:00:07.33 bitrate=1052.2kbits/s speed=0.341x    frame=  228 fps= 10 q=69.0 size=    1063kB time=00:00:07.70 bitrate=1130.0kbits/s speed=0.348x    frame=  236 fps= 10 q=69.0 size=    1063kB time=00:00:08.04 bitrate=1083.1kbits/s speed=0.355x    frame=  244 fps= 11 q=69.0 size=    1063kB time=00:00:08.37 bitrate=1040.1kbits/s speed=0.361x    frame=  252 fps= 11 q=69.0 size=    1063kB time=00:00:08.70 bitrate=1000.3kbits/s speed=0.367x    frame=  260 fps= 11 q=69.0 size=    1063kB time=00:00:09.04 bitrate= 963.3kbits/s speed=0.373x    frame=  268 fps= 11 q=69.0 size=    1063kB time=00:00:09.37 bitrate= 929.1kbits/s speed=0.378x    frame=  276 fps= 11 q=69.0 size=    1063kB time=00:00:09.70 bitrate= 897.3kbits/s speed=0.383x    frame=  285 fps= 11 q=69.0 size=    1063kB time=00:00:10.08 bitrate= 863.9kbits/s speed=0.389x    frame=  295 fps= 11 q=69.0 size=    1063kB time=00:00:10.50 bitrate= 829.6kbits/s speed=0.396x    frame=  302 fps= 11 q=69.0 size=    1063kB time=00:00:10.79 bitrate= 807.1kbits/s speed=0.394x    frame=  312 fps= 11 q=69.0 size=    1353kB time=00:00:11.20 bitrate= 989.0kbits/s speed=0.401x    frame=  319 fps= 11 q=69.0 size=    1353kB time=00:00:11.50 bitrate= 963.9kbits/s speed=0.403x    frame=  331 fps= 11 q=69.0 size=    1353kB time=00:00:12.00 bitrate= 923.8kbits/s speed=0.412x    frame=  343 fps= 12 q=69.0 size=    1353kB time=00:00:12.50 bitrate= 886.8kbits/s speed=0.421x    frame=  355 fps= 12 q=69.0 size=    1353kB time=00:00:13.00 bitrate= 852.7kbits/s speed=0.429x    frame=  367 fps= 12 q=69.0 size=    1353kB time=00:00:13.50 bitrate= 821.1kbits/s speed=0.437x    frame=  376 fps= 12 q=69.0 size=    1353kB time=00:00:13.87 bitrate= 798.9kbits/s speed=0.442x    frame=  386 fps= 12 q=69.0 size=    1353kB time=00:00:14.29 bitrate= 775.6kbits/s speed=0.448x    frame=  395 fps= 12 q=69.0 size=    1353kB time=00:00:14.66 bitrate= 755.8kbits/s speed=0.448x    frame=  407 fps= 12 q=69.0 size=    1491kB time=00:00:15.16 bitrate= 805.5kbits/s speed=0.455x    frame=  415 fps= 12 q=69.0 size=    1491kB time=00:00:15.50 bitrate= 788.2kbits/s speed=0.457x    frame=  425 fps= 12 q=69.0 size=    1491kB time=00:00:15.91 bitrate= 767.6kbits/s speed=0.463x    frame=  432 fps= 12 q=69.0 size=    1491kB time=00:00:16.20 bitrate= 753.8kbits/s speed=0.464x    frame=  442 fps= 12 q=69.0 size=    1491kB time=00:00:16.62 bitrate= 734.9kbits/s speed=0.468x    frame=  454 fps= 13 q=66.0 size=    1491kB time=00:00:17.12 bitrate= 713.4kbits/s speed=0.474x    frame=  463 fps= 13 q=69.0 size=    1625kB time=00:00:17.50 bitrate= 760.9kbits/s speed=0.477x    frame=  472 fps= 13 q=69.0 size=    1625kB time=00:00:17.87 bitrate= 744.9kbits/s speed=0.481x    frame=  482 fps= 13 q=69.0 size=    1625kB time=00:00:18.29 bitrate= 727.9kbits/s speed=0.485x    frame=  488 fps= 13 q=69.0 size=    1625kB time=00:00:18.54 bitrate= 718.1kbits/s speed=0.485x    frame=  499 fps= 13 q=69.0 size=    1625kB time=00:00:19.00 bitrate= 700.8kbits/s speed=0.49x    frame=  500 fps= 13 q=-1.0 Lsize=    1834kB time=00:00:20.70 bitrate= 725.6kbits/s speed=0.518x    
video:1830kB audio:0kB subtitle:0kB other streams:0kB global headers:0kB muxing overhead: 0.241480%
bench: utime=94.516s
bench: maxrss=1318652kB
[libx264 @ 0x3c70120] frame I:8     Avg QP:49.85  size:  4590
[libx264 @ 0x3c70120] frame P:269   Avg QP:50.97  size:  5305
[libx264 @ 0x3c70120] frame B:223   Avg QP:50.90  size:  1836
[libx264 @ 0x3c70120] consecutive B-frames: 37.0%  8.4%  6.6% 48.0%
[libx264 @ 0x3c70120] mb I  I16..4: 82.2% 17.8%  0.0%
[libx264 @ 0x3c70120] mb P  I16..4: 10.2%  1.8%  0.0%  P16..4:  8.5%  0.4%  2.6%  0.0%  0.0%    skip:76.6%
[libx264 @ 0x3c70120] mb B  I16..4:  0.3%  0.4%  0.0%  B16..8:  3.9%  0.0%  0.0%  direct: 0.2%  skip:95.3%  L0:49.5% L1:50.2% BI: 0.2%
[libx264 @ 0x3c70120] final ratefactor: 66.30
[libx264 @ 0x3c70120] 8x8 transform intra:16.8% inter:99.3%
[libx264 @ 0x3c70120] coded y,uvDC,uvAC intra: 0.3% 1.0% 0.0% inter: 0.0% 0.0% 0.0%
[libx264 @ 0x3c70120] i16 v,h,dc,p: 91%  8%  1%  0%
[libx264 @ 0x3c70120] i8 v,h,dc,ddl,ddr,vr,hd,vl,hu: 15%  4% 81%  0%  0%  0%  0%  0%  0%
[libx264 @ 0x3c70120] i4 v,h,dc,ddl,ddr,vr,hd,vl,hu: 30% 16% 42%  3%  5%  2%  0%  2%  2%
[libx264 @ 0x3c70120] i8c dc,h,v,p: 100%  0%  0%  0%
[libx264 @ 0x3c70120] Weighted P-Frames: Y:0.7% UV:0.0%
[libx264 @ 0x3c70120] ref P L0: 49.3% 50.7%
[libx264 @ 0x3c70120] ref B L0: 64.8% 35.2%
[libx264 @ 0x3c70120] ref B L1: 85.4% 14.6%
[libx264 @ 0x3c70120] kb/s:719.30
